<svg width="2041" height="1081" viewBox="0 0 2041 1081" fill="none" xmlns="http://www.w3.org/2000/svg">
<mask id="path-1-inside-1_437_1141" fill="white">
<path d="M0.0800781 0.132631H120.08V120.133H0.0800781V0.132631Z"/>
<path d="M120.08 0.132631L240.08 0.132568V120.133L120.08 120.133V0.132631Z"/>
<path d="M240.08 0.132568H360.08V120.133H240.08V0.132568Z"/>
<path d="M360.08 0.132568H480.08V120.133H360.08V0.132568Z"/>
<path d="M480.08 0.132568H600.08V120.133H480.08V0.132568Z"/>
<path d="M600.08 0.132568H720.08V120.133H600.08V0.132568Z"/>
<path d="M720.08 0.132568H840.08V120.133H720.08V0.132568Z"/>
<path d="M840.08 0.132568H960.08V120.133H840.08V0.132568Z"/>
<path d="M960.08 0.132568H1080.08V120.133H960.08V0.132568Z"/>
<path d="M1080.08 0.132568H1200.08V120.133H1080.08V0.132568Z"/>
<path d="M1200.08 0.132568H1320.08V120.133H1200.08V0.132568Z"/>
<path d="M1320.08 0.132568H1440.08V120.133H1320.08V0.132568Z"/>
<path d="M1440.08 0.132568H1560.08V120.133H1440.08V0.132568Z"/>
<path d="M1560.08 0.132568H1680.08V120.133H1560.08V0.132568Z"/>
<path d="M1680.08 0.132568H1800.08V120.133H1680.08V0.132568Z"/>
<path d="M1800.08 0.132568H1920.08V120.133H1800.08V0.132568Z"/>
<path d="M1920.08 0.132568H2040.08V120.133H1920.08V0.132568Z"/>
<path d="M0.0800781 120.133H120.08V240.133H0.0800781V120.133Z"/>
<path d="M120.08 120.133L240.08 120.133V240.133L120.08 240.133V120.133Z"/>
<path d="M240.08 120.133H360.08V240.133H240.08V120.133Z"/>
<path d="M360.08 120.133H480.08V240.133H360.08V120.133Z"/>
<path d="M480.08 120.133H600.08V240.133H480.08V120.133Z"/>
<path d="M600.08 120.133H720.08V240.133H600.08V120.133Z"/>
<path d="M720.08 120.133H840.08V240.133H720.08V120.133Z"/>
<path d="M840.08 120.133H960.08V240.133H840.08V120.133Z"/>
<path d="M960.08 120.133H1080.08V240.133H960.08V120.133Z"/>
<path d="M1080.08 120.133H1200.08V240.133H1080.08V120.133Z"/>
<path d="M1200.08 120.133H1320.08V240.133H1200.08V120.133Z"/>
<path d="M1320.08 120.133H1440.08V240.133H1320.08V120.133Z"/>
<path d="M1440.08 120.133H1560.08V240.133H1440.08V120.133Z"/>
<path d="M1560.08 120.133H1680.08V240.133H1560.08V120.133Z"/>
<path d="M1680.08 120.133H1800.08V240.133H1680.08V120.133Z"/>
<path d="M1800.08 120.133H1920.08V240.133H1800.08V120.133Z"/>
<path d="M1920.08 120.133H2040.08V240.133H1920.08V120.133Z"/>
<path d="M0.0800781 240.133H120.08V360.133H0.0800781V240.133Z"/>
<path d="M120.08 240.133L240.08 240.133V360.133L120.08 360.133V240.133Z"/>
<path d="M240.08 240.133H360.08V360.133H240.08V240.133Z"/>
<path d="M360.08 240.133H480.08V360.133H360.08V240.133Z"/>
<path d="M480.08 240.133H600.08V360.133H480.08V240.133Z"/>
<path d="M600.08 240.133H720.08V360.133H600.08V240.133Z"/>
<path d="M720.08 240.133H840.08V360.133H720.08V240.133Z"/>
<path d="M840.08 240.133H960.08V360.133H840.08V240.133Z"/>
<path d="M960.08 240.133H1080.08V360.133H960.08V240.133Z"/>
<path d="M1080.08 240.133H1200.08V360.133H1080.08V240.133Z"/>
<path d="M1200.08 240.133H1320.08V360.133H1200.08V240.133Z"/>
<path d="M1320.08 240.133H1440.08V360.133H1320.08V240.133Z"/>
<path d="M1440.08 240.133H1560.08V360.133H1440.08V240.133Z"/>
<path d="M1560.08 240.133H1680.08V360.133H1560.08V240.133Z"/>
<path d="M1680.08 240.133H1800.08V360.133H1680.08V240.133Z"/>
<path d="M1800.08 240.133H1920.08V360.133H1800.08V240.133Z"/>
<path d="M1920.08 240.133H2040.08V360.133H1920.08V240.133Z"/>
<path d="M0.0800781 360.133H120.08V480.133H0.0800781V360.133Z"/>
<path d="M120.08 360.133L240.08 360.133V480.133L120.08 480.133V360.133Z"/>
<path d="M240.08 360.133H360.08V480.133H240.08V360.133Z"/>
<path d="M360.08 360.133H480.08V480.133H360.08V360.133Z"/>
<path d="M480.08 360.133H600.08V480.133H480.08V360.133Z"/>
<path d="M600.08 360.133H720.08V480.133H600.08V360.133Z"/>
<path d="M720.08 360.133H840.08V480.133H720.08V360.133Z"/>
<path d="M840.08 360.133H960.08V480.133H840.08V360.133Z"/>
<path d="M960.08 360.133H1080.08V480.133H960.08V360.133Z"/>
<path d="M1080.08 360.133H1200.08V480.133H1080.08V360.133Z"/>
<path d="M1200.08 360.133H1320.08V480.133H1200.08V360.133Z"/>
<path d="M1320.08 360.133H1440.08V480.133H1320.08V360.133Z"/>
<path d="M1440.08 360.133H1560.08V480.133H1440.08V360.133Z"/>
<path d="M1560.08 360.133H1680.08V480.133H1560.08V360.133Z"/>
<path d="M1680.08 360.133H1800.08V480.133H1680.08V360.133Z"/>
<path d="M1800.08 360.133H1920.08V480.133H1800.08V360.133Z"/>
<path d="M1920.08 360.133H2040.08V480.133H1920.08V360.133Z"/>
<path d="M0.0800781 480.133H120.08V600.133H0.0800781V480.133Z"/>
<path d="M120.08 480.133L240.08 480.133V600.133L120.08 600.133V480.133Z"/>
<path d="M240.08 480.133H360.08V600.133H240.08V480.133Z"/>
<path d="M360.08 480.133H480.08V600.133H360.08V480.133Z"/>
<path d="M480.08 480.133H600.08V600.133H480.08V480.133Z"/>
<path d="M600.08 480.133H720.08V600.133H600.08V480.133Z"/>
<path d="M720.08 480.133H840.08V600.133H720.08V480.133Z"/>
<path d="M840.08 480.133H960.08V600.133H840.08V480.133Z"/>
<path d="M960.08 480.133H1080.08V600.133H960.08V480.133Z"/>
<path d="M1080.08 480.133H1200.08V600.133H1080.08V480.133Z"/>
<path d="M1200.08 480.133H1320.08V600.133H1200.08V480.133Z"/>
<path d="M1320.08 480.133H1440.08V600.133H1320.08V480.133Z"/>
<path d="M1440.08 480.133H1560.08V600.133H1440.08V480.133Z"/>
<path d="M1560.08 480.133H1680.08V600.133H1560.08V480.133Z"/>
<path d="M1680.08 480.133H1800.08V600.133H1680.08V480.133Z"/>
<path d="M1800.08 480.133H1920.08V600.133H1800.08V480.133Z"/>
<path d="M1920.08 480.133H2040.08V600.133H1920.08V480.133Z"/>
<path d="M0.0800781 600.133H120.08V720.133H0.0800781V600.133Z"/>
<path d="M120.08 600.133L240.08 600.133V720.133L120.08 720.133V600.133Z"/>
<path d="M240.08 600.133H360.08V720.133H240.08V600.133Z"/>
<path d="M360.08 600.133H480.08V720.133H360.08V600.133Z"/>
<path d="M480.08 600.133H600.08V720.133H480.08V600.133Z"/>
<path d="M600.08 600.133H720.08V720.133H600.08V600.133Z"/>
<path d="M720.08 600.133H840.08V720.133H720.08V600.133Z"/>
<path d="M840.08 600.133H960.08V720.133H840.08V600.133Z"/>
<path d="M960.08 600.133H1080.08V720.133H960.08V600.133Z"/>
<path d="M1080.08 600.133H1200.08V720.133H1080.08V600.133Z"/>
<path d="M1200.08 600.133H1320.08V720.133H1200.08V600.133Z"/>
<path d="M1320.08 600.133H1440.08V720.133H1320.08V600.133Z"/>
<path d="M1440.08 600.133H1560.08V720.133H1440.08V600.133Z"/>
<path d="M1560.08 600.133H1680.08V720.133H1560.08V600.133Z"/>
<path d="M1680.08 600.133H1800.08V720.133H1680.08V600.133Z"/>
<path d="M1800.08 600.133H1920.08V720.133H1800.08V600.133Z"/>
<path d="M1920.08 600.133H2040.08V720.133H1920.08V600.133Z"/>
<path d="M0.0800781 720.133H120.08V840.133H0.0800781V720.133Z"/>
<path d="M120.08 720.133L240.08 720.133V840.133L120.08 840.133V720.133Z"/>
<path d="M240.08 720.133H360.08V840.133H240.08V720.133Z"/>
<path d="M360.08 720.133H480.08V840.133H360.08V720.133Z"/>
<path d="M480.08 720.133H600.08V840.133H480.08V720.133Z"/>
<path d="M600.08 720.133H720.08V840.133H600.08V720.133Z"/>
<path d="M720.08 720.133H840.08V840.133H720.08V720.133Z"/>
<path d="M840.08 720.133H960.08V840.133H840.08V720.133Z"/>
<path d="M960.08 720.133H1080.08V840.133H960.08V720.133Z"/>
<path d="M1080.08 720.133H1200.08V840.133H1080.08V720.133Z"/>
<path d="M1200.08 720.133H1320.08V840.133H1200.08V720.133Z"/>
<path d="M1320.08 720.133H1440.08V840.133H1320.08V720.133Z"/>
<path d="M1440.08 720.133H1560.08V840.133H1440.08V720.133Z"/>
<path d="M1560.08 720.133H1680.08V840.133H1560.08V720.133Z"/>
<path d="M1680.08 720.133H1800.08V840.133H1680.08V720.133Z"/>
<path d="M1800.08 720.133H1920.08V840.133H1800.08V720.133Z"/>
<path d="M1920.08 720.133H2040.08V840.133H1920.08V720.133Z"/>
<path d="M0.0800781 840.133H120.08V960.133H0.0800781V840.133Z"/>
<path d="M120.08 840.133L240.08 840.133V960.133L120.08 960.133V840.133Z"/>
<path d="M240.08 840.133H360.08V960.133H240.08V840.133Z"/>
<path d="M360.08 840.133H480.08V960.133H360.08V840.133Z"/>
<path d="M480.08 840.133H600.08V960.133H480.08V840.133Z"/>
<path d="M600.08 840.133H720.08V960.133H600.08V840.133Z"/>
<path d="M720.08 840.133H840.08V960.133H720.08V840.133Z"/>
<path d="M840.08 840.133H960.08V960.133H840.08V840.133Z"/>
<path d="M960.08 840.133H1080.08V960.133H960.08V840.133Z"/>
<path d="M1080.08 840.133H1200.08V960.133H1080.08V840.133Z"/>
<path d="M1200.08 840.133H1320.08V960.133H1200.08V840.133Z"/>
<path d="M1320.08 840.133H1440.08V960.133H1320.08V840.133Z"/>
<path d="M1440.08 840.133H1560.08V960.133H1440.08V840.133Z"/>
<path d="M1560.08 840.133H1680.08V960.133H1560.08V840.133Z"/>
<path d="M1680.08 840.133H1800.08V960.133H1680.08V840.133Z"/>
<path d="M1800.08 840.133H1920.08V960.133H1800.08V840.133Z"/>
<path d="M1920.08 840.133H2040.08V960.133H1920.08V840.133Z"/>
<path d="M0.0800781 960.133H120.08V1080.13H0.0800781V960.133Z"/>
<path d="M120.08 960.133L240.08 960.133V1080.13L120.08 1080.13V960.133Z"/>
<path d="M240.08 960.133H360.08V1080.13H240.08V960.133Z"/>
<path d="M360.08 960.133H480.08V1080.13H360.08V960.133Z"/>
<path d="M480.08 960.133H600.08V1080.13H480.08V960.133Z"/>
<path d="M600.08 960.133H720.08V1080.13H600.08V960.133Z"/>
<path d="M720.08 960.133H840.08V1080.13H720.08V960.133Z"/>
<path d="M840.08 960.133H960.08V1080.13H840.08V960.133Z"/>
<path d="M960.08 960.133H1080.08V1080.13H960.08V960.133Z"/>
<path d="M1080.08 960.133H1200.08V1080.13H1080.08V960.133Z"/>
<path d="M1200.08 960.133H1320.08V1080.13H1200.08V960.133Z"/>
<path d="M1320.08 960.133H1440.08V1080.13H1320.08V960.133Z"/>
<path d="M1440.08 960.133H1560.08V1080.13H1440.08V960.133Z"/>
<path d="M1560.08 960.133H1680.08V1080.13H1560.08V960.133Z"/>
<path d="M1680.08 960.133H1800.08V1080.13H1680.08V960.133Z"/>
<path d="M1800.08 960.133H1920.08V1080.13H1800.08V960.133Z"/>
<path d="M1920.08 960.133H2040.08V1080.13H1920.08V960.133Z"/>
</mask>
<path d="M119.83 0.132631V120.133H120.33V0.132631H119.83ZM120.08 119.883H0.0800781V120.383H120.08V119.883ZM239.83 0.132568V120.133H240.33V0.132568H239.83ZM240.08 119.883L120.08 119.883L120.08 120.383L240.08 120.383L240.08 119.883ZM359.83 0.132568V120.133H360.33V0.132568H359.83ZM360.08 119.883H240.08V120.383H360.08V119.883ZM479.83 0.132568V120.133H480.33V0.132568H479.83ZM480.08 119.883H360.08V120.383H480.08V119.883ZM599.83 0.132568V120.133H600.33V0.132568H599.83ZM600.08 119.883H480.08V120.383H600.08V119.883ZM719.83 0.132568V120.133H720.33V0.132568H719.83ZM720.08 119.883H600.08V120.383H720.08V119.883ZM839.83 0.132568V120.133H840.33V0.132568H839.83ZM840.08 119.883H720.08V120.383H840.08V119.883ZM959.83 0.132568V120.133H960.33V0.132568H959.83ZM960.08 119.883H840.08V120.383H960.08V119.883ZM1079.83 0.132568V120.133H1080.33V0.132568H1079.83ZM1080.08 119.883H960.08V120.383H1080.08V119.883ZM1199.83 0.132568V120.133H1200.33V0.132568H1199.83ZM1200.08 119.883H1080.08V120.383H1200.08V119.883ZM1319.83 0.132568V120.133H1320.33V0.132568H1319.83ZM1320.08 119.883H1200.08V120.383H1320.08V119.883ZM1439.83 0.132568V120.133H1440.33V0.132568H1439.83ZM1440.08 119.883H1320.08V120.383H1440.08V119.883ZM1559.83 0.132568V120.133H1560.33V0.132568H1559.83ZM1560.08 119.883H1440.08V120.383H1560.08V119.883ZM1679.83 0.132568V120.133H1680.33V0.132568H1679.83ZM1680.08 119.883H1560.08V120.383H1680.08V119.883ZM1799.83 0.132568V120.133H1800.33V0.132568H1799.83ZM1800.08 119.883H1680.08V120.383H1800.08V119.883ZM1919.83 0.132568V120.133H1920.33V0.132568H1919.83ZM1920.08 119.883H1800.08V120.383H1920.08V119.883ZM2040.08 119.883H1920.08V120.383H2040.08V119.883ZM119.83 120.133V240.133H120.33V120.133H119.83ZM120.08 239.883H0.0800781V240.383H120.08V239.883ZM239.83 120.133V240.133H240.33V120.133H239.83ZM240.08 239.883L120.08 239.883L120.08 240.383L240.08 240.383L240.08 239.883ZM359.83 120.133V240.133H360.33V120.133H359.83ZM360.08 239.883H240.08V240.383H360.08V239.883ZM479.83 120.133V240.133H480.33V120.133H479.83ZM480.08 239.883H360.08V240.383H480.08V239.883ZM599.83 120.133V240.133H600.33V120.133H599.83ZM600.08 239.883H480.08V240.383H600.08V239.883ZM719.83 120.133V240.133H720.33V120.133H719.83ZM720.08 239.883H600.08V240.383H720.08V239.883ZM839.83 120.133V240.133H840.33V120.133H839.83ZM840.08 239.883H720.08V240.383H840.08V239.883ZM959.83 120.133V240.133H960.33V120.133H959.83ZM960.08 239.883H840.08V240.383H960.08V239.883ZM1079.83 120.133V240.133H1080.33V120.133H1079.83ZM1080.08 239.883H960.08V240.383H1080.08V239.883ZM1199.83 120.133V240.133H1200.33V120.133H1199.83ZM1200.08 239.883H1080.08V240.383H1200.08V239.883ZM1319.83 120.133V240.133H1320.33V120.133H1319.83ZM1320.08 239.883H1200.08V240.383H1320.08V239.883ZM1439.83 120.133V240.133H1440.33V120.133H1439.83ZM1440.08 239.883H1320.08V240.383H1440.08V239.883ZM1559.83 120.133V240.133H1560.33V120.133H1559.83ZM1560.08 239.883H1440.08V240.383H1560.08V239.883ZM1679.83 120.133V240.133H1680.33V120.133H1679.83ZM1680.08 239.883H1560.08V240.383H1680.08V239.883ZM1799.83 120.133V240.133H1800.33V120.133H1799.83ZM1800.08 239.883H1680.08V240.383H1800.08V239.883ZM1919.83 120.133V240.133H1920.33V120.133H1919.83ZM1920.08 239.883H1800.08V240.383H1920.08V239.883ZM2040.08 239.883H1920.08V240.383H2040.08V239.883ZM119.83 240.133V360.133H120.33V240.133H119.83ZM120.08 359.883H0.0800781V360.383H120.08V359.883ZM239.83 240.133V360.133H240.33V240.133H239.83ZM240.08 359.883L120.08 359.883L120.08 360.383L240.08 360.383L240.08 359.883ZM359.83 240.133V360.133H360.33V240.133H359.83ZM360.08 359.883H240.08V360.383H360.08V359.883ZM479.83 240.133V360.133H480.33V240.133H479.83ZM480.08 359.883H360.08V360.383H480.08V359.883ZM599.83 240.133V360.133H600.33V240.133H599.83ZM600.08 359.883H480.08V360.383H600.08V359.883ZM719.83 240.133V360.133H720.33V240.133H719.83ZM720.08 359.883H600.08V360.383H720.08V359.883ZM839.83 240.133V360.133H840.33V240.133H839.83ZM840.08 359.883H720.08V360.383H840.08V359.883ZM959.83 240.133V360.133H960.33V240.133H959.83ZM960.08 359.883H840.08V360.383H960.08V359.883ZM1079.83 240.133V360.133H1080.33V240.133H1079.83ZM1080.08 359.883H960.08V360.383H1080.08V359.883ZM1199.83 240.133V360.133H1200.33V240.133H1199.83ZM1200.08 359.883H1080.08V360.383H1200.08V359.883ZM1319.83 240.133V360.133H1320.33V240.133H1319.83ZM1320.08 359.883H1200.08V360.383H1320.08V359.883ZM1439.83 240.133V360.133H1440.33V240.133H1439.83ZM1440.08 359.883H1320.08V360.383H1440.08V359.883ZM1559.83 240.133V360.133H1560.33V240.133H1559.83ZM1560.08 359.883H1440.08V360.383H1560.08V359.883ZM1679.83 240.133V360.133H1680.33V240.133H1679.83ZM1680.08 359.883H1560.08V360.383H1680.08V359.883ZM1799.83 240.133V360.133H1800.33V240.133H1799.83ZM1800.08 359.883H1680.08V360.383H1800.08V359.883ZM1919.83 240.133V360.133H1920.33V240.133H1919.83ZM1920.08 359.883H1800.08V360.383H1920.08V359.883ZM2040.08 359.883H1920.08V360.383H2040.08V359.883ZM119.83 360.133V480.133H120.33V360.133H119.83ZM120.08 479.883H0.0800781V480.383H120.08V479.883ZM239.83 360.133V480.133H240.33V360.133H239.83ZM240.08 479.883L120.08 479.883L120.08 480.383L240.08 480.383L240.08 479.883ZM359.83 360.133V480.133H360.33V360.133H359.83ZM360.08 479.883H240.08V480.383H360.08V479.883ZM479.83 360.133V480.133H480.33V360.133H479.83ZM480.08 479.883H360.08V480.383H480.08V479.883ZM599.83 360.133V480.133H600.33V360.133H599.83ZM600.08 479.883H480.08V480.383H600.08V479.883ZM719.83 360.133V480.133H720.33V360.133H719.83ZM720.08 479.883H600.08V480.383H720.08V479.883ZM839.83 360.133V480.133H840.33V360.133H839.83ZM840.08 479.883H720.08V480.383H840.08V479.883ZM959.83 360.133V480.133H960.33V360.133H959.83ZM960.08 479.883H840.08V480.383H960.08V479.883ZM1079.83 360.133V480.133H1080.33V360.133H1079.83ZM1080.08 479.883H960.08V480.383H1080.08V479.883ZM1199.83 360.133V480.133H1200.33V360.133H1199.83ZM1200.08 479.883H1080.08V480.383H1200.08V479.883ZM1319.83 360.133V480.133H1320.33V360.133H1319.83ZM1320.08 479.883H1200.08V480.383H1320.08V479.883ZM1439.83 360.133V480.133H1440.33V360.133H1439.83ZM1440.08 479.883H1320.08V480.383H1440.08V479.883ZM1559.83 360.133V480.133H1560.33V360.133H1559.83ZM1560.08 479.883H1440.08V480.383H1560.08V479.883ZM1679.83 360.133V480.133H1680.33V360.133H1679.83ZM1680.08 479.883H1560.08V480.383H1680.08V479.883ZM1799.83 360.133V480.133H1800.33V360.133H1799.83ZM1800.08 479.883H1680.08V480.383H1800.08V479.883ZM1919.83 360.133V480.133H1920.33V360.133H1919.83ZM1920.08 479.883H1800.08V480.383H1920.08V479.883ZM2040.08 479.883H1920.08V480.383H2040.08V479.883ZM119.83 480.133V600.133H120.33V480.133H119.83ZM120.08 599.883H0.0800781V600.383H120.08V599.883ZM239.83 480.133V600.133H240.33V480.133H239.83ZM240.08 599.883L120.08 599.883L120.08 600.383L240.08 600.383L240.08 599.883ZM359.83 480.133V600.133H360.33V480.133H359.83ZM360.08 599.883H240.08V600.383H360.08V599.883ZM479.83 480.133V600.133H480.33V480.133H479.83ZM480.08 599.883H360.08V600.383H480.08V599.883ZM599.83 480.133V600.133H600.33V480.133H599.83ZM600.08 599.883H480.08V600.383H600.08V599.883ZM719.83 480.133V600.133H720.33V480.133H719.83ZM720.08 599.883H600.08V600.383H720.08V599.883ZM839.83 480.133V600.133H840.33V480.133H839.83ZM840.08 599.883H720.08V600.383H840.08V599.883ZM959.83 480.133V600.133H960.33V480.133H959.83ZM960.08 599.883H840.08V600.383H960.08V599.883ZM1079.83 480.133V600.133H1080.33V480.133H1079.83ZM1080.08 599.883H960.08V600.383H1080.08V599.883ZM1199.83 480.133V600.133H1200.33V480.133H1199.83ZM1200.08 599.883H1080.08V600.383H1200.08V599.883ZM1319.83 480.133V600.133H1320.33V480.133H1319.83ZM1320.08 599.883H1200.08V600.383H1320.08V599.883ZM1439.83 480.133V600.133H1440.33V480.133H1439.83ZM1440.08 599.883H1320.08V600.383H1440.08V599.883ZM1559.83 480.133V600.133H1560.33V480.133H1559.83ZM1560.08 599.883H1440.08V600.383H1560.08V599.883ZM1679.83 480.133V600.133H1680.33V480.133H1679.83ZM1680.08 599.883H1560.08V600.383H1680.08V599.883ZM1799.83 480.133V600.133H1800.33V480.133H1799.83ZM1800.08 599.883H1680.08V600.383H1800.08V599.883ZM1919.83 480.133V600.133H1920.33V480.133H1919.83ZM1920.08 599.883H1800.08V600.383H1920.08V599.883ZM2040.08 599.883H1920.08V600.383H2040.08V599.883ZM119.83 600.133V720.133H120.33V600.133H119.83ZM120.08 719.883H0.0800781V720.383H120.08V719.883ZM239.83 600.133V720.133H240.33V600.133H239.83ZM240.08 719.883L120.08 719.883L120.08 720.383L240.08 720.383L240.08 719.883ZM359.83 600.133V720.133H360.33V600.133H359.83ZM360.08 719.883H240.08V720.383H360.08V719.883ZM479.83 600.133V720.133H480.33V600.133H479.83ZM480.08 719.883H360.08V720.383H480.08V719.883ZM599.83 600.133V720.133H600.33V600.133H599.83ZM600.08 719.883H480.08V720.383H600.08V719.883ZM719.83 600.133V720.133H720.33V600.133H719.83ZM720.08 719.883H600.08V720.383H720.08V719.883ZM839.83 600.133V720.133H840.33V600.133H839.83ZM840.08 719.883H720.08V720.383H840.08V719.883ZM959.83 600.133V720.133H960.33V600.133H959.83ZM960.08 719.883H840.08V720.383H960.08V719.883ZM1079.83 600.133V720.133H1080.33V600.133H1079.83ZM1080.08 719.883H960.08V720.383H1080.08V719.883ZM1199.83 600.133V720.133H1200.33V600.133H1199.83ZM1200.08 719.883H1080.08V720.383H1200.08V719.883ZM1319.83 600.133V720.133H1320.33V600.133H1319.83ZM1320.08 719.883H1200.08V720.383H1320.08V719.883ZM1439.83 600.133V720.133H1440.33V600.133H1439.83ZM1440.08 719.883H1320.08V720.383H1440.08V719.883ZM1559.83 600.133V720.133H1560.33V600.133H1559.83ZM1560.08 719.883H1440.08V720.383H1560.08V719.883ZM1679.83 600.133V720.133H1680.33V600.133H1679.83ZM1680.08 719.883H1560.08V720.383H1680.08V719.883ZM1799.83 600.133V720.133H1800.33V600.133H1799.83ZM1800.08 719.883H1680.08V720.383H1800.08V719.883ZM1919.83 600.133V720.133H1920.33V600.133H1919.83ZM1920.08 719.883H1800.08V720.383H1920.08V719.883ZM2040.08 719.883H1920.08V720.383H2040.08V719.883ZM119.83 720.133V840.133H120.33V720.133H119.83ZM120.08 839.883H0.0800781V840.383H120.08V839.883ZM239.83 720.133V840.133H240.33V720.133H239.83ZM240.08 839.883L120.08 839.883L120.08 840.383L240.08 840.383L240.08 839.883ZM359.83 720.133V840.133H360.33V720.133H359.83ZM360.08 839.883H240.08V840.383H360.08V839.883ZM479.83 720.133V840.133H480.33V720.133H479.83ZM480.08 839.883H360.08V840.383H480.08V839.883ZM599.83 720.133V840.133H600.33V720.133H599.83ZM600.08 839.883H480.08V840.383H600.08V839.883ZM719.83 720.133V840.133H720.33V720.133H719.83ZM720.08 839.883H600.08V840.383H720.08V839.883ZM839.83 720.133V840.133H840.33V720.133H839.83ZM840.08 839.883H720.08V840.383H840.08V839.883ZM959.83 720.133V840.133H960.33V720.133H959.83ZM960.08 839.883H840.08V840.383H960.08V839.883ZM1079.83 720.133V840.133H1080.33V720.133H1079.83ZM1080.08 839.883H960.08V840.383H1080.08V839.883ZM1199.83 720.133V840.133H1200.33V720.133H1199.83ZM1200.08 839.883H1080.08V840.383H1200.08V839.883ZM1319.83 720.133V840.133H1320.33V720.133H1319.83ZM1320.08 839.883H1200.08V840.383H1320.08V839.883ZM1439.83 720.133V840.133H1440.33V720.133H1439.83ZM1440.08 839.883H1320.08V840.383H1440.08V839.883ZM1559.83 720.133V840.133H1560.33V720.133H1559.83ZM1560.08 839.883H1440.08V840.383H1560.08V839.883ZM1679.83 720.133V840.133H1680.33V720.133H1679.83ZM1680.08 839.883H1560.08V840.383H1680.08V839.883ZM1799.83 720.133V840.133H1800.33V720.133H1799.83ZM1800.08 839.883H1680.08V840.383H1800.08V839.883ZM1919.83 720.133V840.133H1920.33V720.133H1919.83ZM1920.08 839.883H1800.08V840.383H1920.08V839.883ZM2040.08 839.883H1920.08V840.383H2040.08V839.883ZM119.83 840.133V960.133H120.33V840.133H119.83ZM120.08 959.883H0.0800781V960.383H120.08V959.883ZM239.83 840.133V960.133H240.33V840.133H239.83ZM240.08 959.883L120.08 959.883L120.08 960.383L240.08 960.383L240.08 959.883ZM359.83 840.133V960.133H360.33V840.133H359.83ZM360.08 959.883H240.08V960.383H360.08V959.883ZM479.83 840.133V960.133H480.33V840.133H479.83ZM480.08 959.883H360.08V960.383H480.08V959.883ZM599.83 840.133V960.133H600.33V840.133H599.83ZM600.08 959.883H480.08V960.383H600.08V959.883ZM719.83 840.133V960.133H720.33V840.133H719.83ZM720.08 959.883H600.08V960.383H720.08V959.883ZM839.83 840.133V960.133H840.33V840.133H839.83ZM840.08 959.883H720.08V960.383H840.08V959.883ZM959.83 840.133V960.133H960.33V840.133H959.83ZM960.08 959.883H840.08V960.383H960.08V959.883ZM1079.83 840.133V960.133H1080.33V840.133H1079.83ZM1080.08 959.883H960.08V960.383H1080.08V959.883ZM1199.83 840.133V960.133H1200.33V840.133H1199.83ZM1200.08 959.883H1080.08V960.383H1200.08V959.883ZM1319.83 840.133V960.133H1320.33V840.133H1319.83ZM1320.08 959.883H1200.08V960.383H1320.08V959.883ZM1439.83 840.133V960.133H1440.33V840.133H1439.83ZM1440.08 959.883H1320.08V960.383H1440.08V959.883ZM1559.83 840.133V960.133H1560.33V840.133H1559.83ZM1560.08 959.883H1440.08V960.383H1560.08V959.883ZM1679.83 840.133V960.133H1680.33V840.133H1679.83ZM1680.08 959.883H1560.08V960.383H1680.08V959.883ZM1799.83 840.133V960.133H1800.33V840.133H1799.83ZM1800.08 959.883H1680.08V960.383H1800.08V959.883ZM1919.83 840.133V960.133H1920.33V840.133H1919.83ZM1920.08 959.883H1800.08V960.383H1920.08V959.883ZM2040.08 959.883H1920.08V960.383H2040.08V959.883ZM119.83 960.133V1080.13H120.33V960.133H119.83ZM239.83 960.133V1080.13H240.33V960.133H239.83ZM359.83 960.133V1080.13H360.33V960.133H359.83ZM479.83 960.133V1080.13H480.33V960.133H479.83ZM599.83 960.133V1080.13H600.33V960.133H599.83ZM719.83 960.133V1080.13H720.33V960.133H719.83ZM839.83 960.133V1080.13H840.33V960.133H839.83ZM959.83 960.133V1080.13H960.33V960.133H959.83ZM1079.83 960.133V1080.13H1080.33V960.133H1079.83ZM1199.83 960.133V1080.13H1200.33V960.133H1199.83ZM1319.83 960.133V1080.13H1320.33V960.133H1319.83ZM1439.83 960.133V1080.13H1440.33V960.133H1439.83ZM1559.83 960.133V1080.13H1560.33V960.133H1559.83ZM1679.83 960.133V1080.13H1680.33V960.133H1679.83ZM1799.83 960.133V1080.13H1800.33V960.133H1799.83ZM1919.83 960.133V1080.13H1920.33V960.133H1919.83ZM0.0800781 0.132631V-0.367369H-0.419922V0.132631H0.0800781ZM120.08 0.132631L120.08 0.632631L120.08 0.632631L120.08 0.132631ZM240.08 0.132568L240.08 -0.367432L240.08 -0.367432L240.08 0.132568ZM2040.08 0.132568H2040.58V-0.367432H2040.08V0.132568ZM120.08 1080.13L120.08 1080.63L120.08 1080.63L120.08 1080.13ZM0.0800781 1080.13H-0.419922V1080.63H0.0800781V1080.13ZM240.08 1080.13L240.08 1079.63L240.08 1079.63L240.08 1080.13ZM2040.08 1080.13V1080.63H2040.58V1080.13H2040.08ZM0.0800781 0.632631H120.08V-0.367369H0.0800781V0.632631ZM0.580078 120.133V0.132631H-0.419922V120.133H0.580078ZM120.08 0.632631L240.08 0.632568L240.08 -0.367432L120.08 -0.367369L120.08 0.632631ZM240.08 0.632568H360.08V-0.367432H240.08V0.632568ZM360.08 0.632568H480.08V-0.367432H360.08V0.632568ZM480.08 0.632568H600.08V-0.367432H480.08V0.632568ZM600.08 0.632568H720.08V-0.367432H600.08V0.632568ZM720.08 0.632568H840.08V-0.367432H720.08V0.632568ZM840.08 0.632568H960.08V-0.367432H840.08V0.632568ZM960.08 0.632568H1080.08V-0.367432H960.08V0.632568ZM1080.08 0.632568H1200.08V-0.367432H1080.08V0.632568ZM1200.08 0.632568H1320.08V-0.367432H1200.08V0.632568ZM1320.08 0.632568H1440.08V-0.367432H1320.08V0.632568ZM1440.08 0.632568H1560.08V-0.367432H1440.08V0.632568ZM1560.08 0.632568H1680.08V-0.367432H1560.08V0.632568ZM1680.08 0.632568H1800.08V-0.367432H1680.08V0.632568ZM1800.08 0.632568H1920.08V-0.367432H1800.08V0.632568ZM1920.08 0.632568H2040.08V-0.367432H1920.08V0.632568ZM2039.58 0.132568V120.133H2040.58V0.132568H2039.58ZM0.580078 240.133V120.133H-0.419922V240.133H0.580078ZM2039.58 120.133V240.133H2040.58V120.133H2039.58ZM0.580078 360.133V240.133H-0.419922V360.133H0.580078ZM2039.58 240.133V360.133H2040.58V240.133H2039.58ZM0.580078 480.133V360.133H-0.419922V480.133H0.580078ZM2039.58 360.133V480.133H2040.58V360.133H2039.58ZM0.580078 600.133V480.133H-0.419922V600.133H0.580078ZM2039.58 480.133V600.133H2040.58V480.133H2039.58ZM0.580078 720.133V600.133H-0.419922V720.133H0.580078ZM2039.58 600.133V720.133H2040.58V600.133H2039.58ZM0.580078 840.133V720.133H-0.419922V840.133H0.580078ZM2039.58 720.133V840.133H2040.58V720.133H2039.58ZM0.580078 960.133V840.133H-0.419922V960.133H0.580078ZM2039.58 840.133V960.133H2040.58V840.133H2039.58ZM120.08 1079.63H0.0800781V1080.63H120.08V1079.63ZM0.580078 1080.13V960.133H-0.419922V1080.13H0.580078ZM240.08 1079.63L120.08 1079.63L120.08 1080.63L240.08 1080.63L240.08 1079.63ZM360.08 1079.63H240.08V1080.63H360.08V1079.63ZM480.08 1079.63H360.08V1080.63H480.08V1079.63ZM600.08 1079.63H480.08V1080.63H600.08V1079.63ZM720.08 1079.63H600.08V1080.63H720.08V1079.63ZM840.08 1079.63H720.08V1080.63H840.08V1079.63ZM960.08 1079.63H840.08V1080.63H960.08V1079.63ZM1080.08 1079.63H960.08V1080.63H1080.08V1079.63ZM1200.08 1079.63H1080.08V1080.63H1200.08V1079.63ZM1320.08 1079.63H1200.08V1080.63H1320.08V1079.63ZM1440.08 1079.63H1320.08V1080.63H1440.08V1079.63ZM1560.08 1079.63H1440.08V1080.63H1560.08V1079.63ZM1680.08 1079.63H1560.08V1080.63H1680.08V1079.63ZM1800.08 1079.63H1680.08V1080.63H1800.08V1079.63ZM1920.08 1079.63H1800.08V1080.63H1920.08V1079.63ZM2039.58 960.133V1080.13H2040.58V960.133H2039.58ZM2040.08 1079.63H1920.08V1080.63H2040.08V1079.63Z" fill="url(#paint0_radial_437_1141)" mask="url(#path-1-inside-1_437_1141)"/>
<defs>
<radialGradient id="paint0_radial_437_1141" cx="0" cy="0" r="1" gradientUnits="userSpaceOnUse" gradientTransform="translate(1020.08 540.133) rotate(90) scale(540 1020)">
<stop stop-color="#7A7A7A"/>
<stop offset="1" stop-color="#7A7A7A" stop-opacity="0"/>
</radialGradient>
</defs>
</svg>
