<svg width="64" height="64" viewBox="0 0 64 64" fill="none" xmlns="http://www.w3.org/2000/svg">
<path d="M61.5 26.8C59.1 12.7 46.8 2 32 2C17.2 2 4.9 12.7 2.5 26.8L32 12L61.5 26.8ZM2.5 37.2C4.9 51.3 17.2 62 32 62C46.8 62 59.1 51.3 61.5 37.2L32 52L2.5 37.2Z" fill="#699635"/>
<path d="M32 12L2.5 26.8C2.2 28.5 2 30.2 2 32C2 33.8 2.2 35.5 2.5 37.2L32 52L61.5 37.2C61.8 35.5 62 33.8 62 32C62 30.2 61.8 28.5 61.5 26.8L32 12Z" fill="#FFE62E"/>
<path d="M26 28.3999C22.8 28.3999 19.8 29.0999 17.1 30.2999C17 30.8999 17 31.3999 17 31.9999C17 40.2999 23.7 46.9999 32 46.9999C37.6 46.9999 42.5 43.8999 45.1 39.3999C41.4 32.8999 34.2 28.3999 26 28.3999Z" fill="#428BC1"/>
<path d="M46.8 34.4C46.9 33.6 47 32.8 47 32C47 23.7 40.3 17 32 17C26.1 17 21 20.4 18.5 25.4C20.9 24.7 23.4 24.3 26 24.3C34.5 24.3 42 28.3 46.8 34.4Z" fill="#428BC1"/>
<path d="M26.0001 24.2998C23.4001 24.2998 20.9001 24.6998 18.5001 25.3998C17.8001 26.8998 17.3001 28.4998 17.1001 30.2998C19.8001 29.0998 22.8001 28.3998 26.0001 28.3998C34.2001 28.3998 41.4001 32.7998 45.1001 39.2998C46.0001 37.7998 46.5001 36.0998 46.8001 34.3998C42.0001 28.2998 34.5001 24.2998 26.0001 24.2998Z" fill="white"/>
<path d="M22 33C22.5523 33 23 32.5523 23 32C23 31.4477 22.5523 31 22 31C21.4477 31 21 31.4477 21 32C21 32.5523 21.4477 33 22 33Z" fill="white"/>
<path d="M26 39C26.5523 39 27 38.5523 27 38C27 37.4477 26.5523 37 26 37C25.4477 37 25 37.4477 25 38C25 38.5523 25.4477 39 26 39Z" fill="white"/>
<path d="M32 39C32.5523 39 33 38.5523 33 38C33 37.4477 32.5523 37 32 37C31.4477 37 31 37.4477 31 38C31 38.5523 31.4477 39 32 39Z" fill="white"/>
<path d="M32 43C32.5523 43 33 42.5523 33 42C33 41.4477 32.5523 41 32 41C31.4477 41 31 41.4477 31 42C31 42.5523 31.4477 43 32 43Z" fill="white"/>
<path d="M40 39C40.5523 39 41 38.5523 41 38C41 37.4477 40.5523 37 40 37C39.4477 37 39 37.4477 39 38C39 38.5523 39.4477 39 40 39Z" fill="white"/>
<path d="M40 43C40.5523 43 41 42.5523 41 42C41 41.4477 40.5523 41 40 41C39.4477 41 39 41.4477 39 42C39 42.5523 39.4477 43 40 43Z" fill="white"/>
<path d="M36 41C36.5523 41 37 40.5523 37 40C37 39.4477 36.5523 39 36 39C35.4477 39 35 39.4477 35 40C35 40.5523 35.4477 41 36 41Z" fill="white"/>
<path d="M22 37C22.5523 37 23 36.5523 23 36C23 35.4477 22.5523 35 22 35C21.4477 35 21 35.4477 21 36C21 36.5523 21.4477 37 22 37Z" fill="white"/>
</svg>
