<svg width="64" height="64" viewBox="0 0 64 64" fill="none" xmlns="http://www.w3.org/2000/svg">
<path d="M48 6.6C43.3 3.7 37.9 2 32 2V6.6H48Z" fill="#ED4C5C"/>
<path d="M32 11.2001H53.6C51.9 9.5001 50 7.9001 48 6.6001H32V11.2001Z" fill="white"/>
<path d="M32 15.8002H57.3C56.2 14.1002 55 12.6002 53.7 11.2002H32V15.8002Z" fill="#ED4C5C"/>
<path d="M32 20.3998H59.7C59 18.7998 58.2 17.1998 57.3 15.7998H32V20.3998Z" fill="white"/>
<path d="M32 24.9999H61.2C60.8 23.3999 60.3 21.8999 59.7 20.3999H32V24.9999Z" fill="#ED4C5C"/>
<path d="M32 29.7001H61.9C61.8 28.1001 61.5 26.6001 61.2 25.1001H32V29.7001Z" fill="white"/>
<path d="M61.9 29.7002H32V32.0002H2C2 32.8002 2 33.5002 2.1 34.3002H61.9C62 33.5002 62 32.8002 62 32.0002C62 31.2002 62 30.4002 61.9 29.7002Z" fill="#ED4C5C"/>
<path d="M2.8001 38.8998H61.2001C61.6001 37.3998 61.8001 35.8998 61.9001 34.2998H2.1001C2.2001 35.7998 2.4001 37.3998 2.8001 38.8998Z" fill="white"/>
<path d="M4.30005 43.4999H59.7001C60.3001 41.9999 60.8001 40.4999 61.2001 38.8999H2.80005C3.20005 40.4999 3.70005 41.9999 4.30005 43.4999Z" fill="#ED4C5C"/>
<path d="M6.70005 48.1H57.3C58.2 46.6 59.0001 45.1 59.7001 43.5H4.30005C5.00005 45.1 5.80005 46.6 6.70005 48.1Z" fill="white"/>
<path d="M10.3 52.7001H53.7C55 51.3001 56.2999 49.7001 57.2999 48.1001H6.69995C7.69995 49.8001 8.99995 51.3001 10.3 52.7001Z" fill="#ED4C5C"/>
<path d="M15.9 57.3002H48.1C50.2 56.0002 52.0001 54.4002 53.7001 52.7002H10.3C12 54.5002 13.9 56.0002 15.9 57.3002Z" fill="white"/>
<path d="M31.9999 61.9998C37.8999 61.9998 43.3999 60.2998 48.0999 57.2998H15.8999C20.5999 60.2998 26.0999 61.9998 31.9999 61.9998Z" fill="#ED4C5C"/>
<path d="M16 6.6C13.9 7.9 12 9.5 10.3 11.2C8.9 12.6 7.7 14.2 6.7 15.8C5.8 17.3 4.9 18.8 4.3 20.4C3.7 21.9 3.2 23.4 2.8 25C2.4 26.5 2.2 28 2.1 29.6C2 30.4 2 31.2 2 32H32V2C26.1 2 20.7 3.7 16 6.6Z" fill="#428BC1"/>
<path d="M24.9999 3L25.4999 4.5H26.9999L25.7999 5.5L26.1999 7L24.9999 6.1L23.7999 7L24.1999 5.5L22.9999 4.5H24.4999L24.9999 3ZM28.9999 9L29.4999 10.5H30.9999L29.7999 11.5L30.1999 13L28.9999 12.1L27.7999 13L28.1999 11.5L26.9999 10.5H28.4999L28.9999 9ZM20.9999 9L21.4999 10.5H22.9999L21.7999 11.5L22.1999 13L20.9999 12.1L19.7999 13L20.1999 11.5L18.9999 10.5H20.4999L20.9999 9ZM24.9999 15L25.4999 16.5H26.9999L25.7999 17.5L26.1999 19L24.9999 18.1L23.7999 19L24.1999 17.5L22.9999 16.5H24.4999L24.9999 15ZM16.9999 15L17.4999 16.5H18.9999L17.7999 17.5L18.1999 19L16.9999 18.1L15.7999 19L16.1999 17.5L14.9999 16.5H16.4999L16.9999 15ZM8.9999 15L9.4999 16.5H10.9999L9.7999 17.5L10.1999 19L8.9999 18.1L7.7999 19L8.1999 17.5L6.9999 16.5H8.4999L8.9999 15ZM28.9999 21L29.4999 22.5H30.9999L29.7999 23.5L30.1999 25L28.9999 24.1L27.7999 25L28.1999 23.5L26.9999 22.5H28.4999L28.9999 21ZM20.9999 21L21.4999 22.5H22.9999L21.7999 23.5L22.1999 25L20.9999 24.1L19.7999 25L20.1999 23.5L18.9999 22.5H20.4999L20.9999 21ZM12.9999 21L13.4999 22.5H14.9999L13.7999 23.5L14.1999 25L12.9999 24.1L11.7999 25L12.1999 23.5L10.9999 22.5H12.4999L12.9999 21ZM24.9999 27L25.4999 28.5H26.9999L25.7999 29.5L26.1999 31L24.9999 30.1L23.7999 31L24.1999 29.5L22.9999 28.5H24.4999L24.9999 27ZM16.9999 27L17.4999 28.5H18.9999L17.7999 29.5L18.1999 31L16.9999 30.1L15.7999 31L16.1999 29.5L14.9999 28.5H16.4999L16.9999 27ZM8.9999 27L9.4999 28.5H10.9999L9.7999 29.5L10.1999 31L8.9999 30.1L7.7999 31L8.1999 29.5L6.9999 28.5H8.4999L8.9999 27ZM11.7999 13L12.9999 12.1L14.1999 13L13.6999 11.5L14.8999 10.5H13.3999L12.9999 9L12.4999 10.5H11.0999L12.2999 11.4L11.7999 13ZM3.7999 25L4.9999 24.1L6.1999 25L5.6999 23.5L6.8999 22.5H5.4999L4.9999 21L4.4999 22.5H3.4999C3.4999 22.6 3.3999 22.7 3.3999 22.8L4.1999 23.4L3.7999 25Z" fill="white"/>
</svg>
