<svg width="55" height="37" viewBox="0 0 55 37" fill="none" xmlns="http://www.w3.org/2000/svg">
<path d="M15.9225 0.732156H22.1952V25.2776C22.1838 27.5276 21.7066 29.4651 20.7634 31.0901C19.8202 32.7037 18.502 33.9481 16.8088 34.8231C15.127 35.6867 13.1668 36.1185 10.9281 36.1185C8.88269 36.1185 7.04178 35.7549 5.40541 35.0276C3.78041 34.289 2.49064 33.1981 1.5361 31.7549C0.581551 30.3117 0.104279 28.5162 0.104279 26.3685H6.39405C6.40542 27.3117 6.60996 28.1242 7.00769 28.806C7.41678 29.4878 7.97928 30.0106 8.69519 30.3742C9.4111 30.7378 10.235 30.9197 11.1668 30.9197C12.1781 30.9197 13.0361 30.7094 13.7406 30.289C14.4452 29.8572 14.9793 29.2208 15.3429 28.3799C15.7179 27.539 15.9111 26.5049 15.9225 25.2776V0.732156Z" fill="white"/>
<path d="M48.0276 10.3287C47.8685 8.84011 47.198 7.68102 46.0162 6.85147C44.8458 6.02193 43.323 5.60716 41.448 5.60716C40.1298 5.60716 38.9992 5.80602 38.056 6.20375C37.1128 6.60147 36.3912 7.14125 35.8912 7.82306C35.3912 8.50488 35.1355 9.28329 35.1242 10.1583C35.1242 10.8856 35.2889 11.5162 35.6185 12.0503C35.9594 12.5844 36.4196 13.039 36.9992 13.414C37.5787 13.7776 38.2208 14.0844 38.9253 14.3344C39.6298 14.5844 40.3401 14.7947 41.056 14.9651L44.3287 15.7833C45.6469 16.0901 46.9139 16.5049 48.1298 17.0276C49.3571 17.5503 50.4537 18.2094 51.4196 19.0049C52.3969 19.8003 53.1696 20.7606 53.7378 21.8856C54.306 23.0106 54.5901 24.3287 54.5901 25.8401C54.5901 27.8856 54.0673 29.6867 53.0219 31.2435C51.9764 32.789 50.4651 33.9992 48.4878 34.8742C46.5219 35.7378 44.1412 36.1697 41.3458 36.1697C38.6298 36.1697 36.2719 35.7492 34.2719 34.9083C32.2833 34.0674 30.7264 32.8401 29.6014 31.2265C28.4878 29.6128 27.8855 27.6469 27.7946 25.3287H34.0162C34.1071 26.5447 34.4821 27.556 35.1412 28.3628C35.8003 29.1697 36.6583 29.7719 37.7151 30.1697C38.7833 30.5674 39.9764 30.7662 41.2946 30.7662C42.6696 30.7662 43.8742 30.5617 44.9083 30.1526C45.9537 29.7322 46.7719 29.1526 47.3628 28.414C47.9537 27.664 48.2548 26.789 48.2662 25.789C48.2548 24.8799 47.9878 24.1299 47.4651 23.539C46.9423 22.9367 46.2094 22.4367 45.2662 22.039C44.3344 21.6299 43.2435 21.2662 41.9935 20.9481L38.0219 19.9253C35.1469 19.1867 32.8742 18.0674 31.2037 16.5674C29.5446 15.056 28.7151 13.0503 28.7151 10.5503C28.7151 8.49352 29.2719 6.69238 30.3855 5.14693C31.5105 3.60147 33.0389 2.40261 34.9708 1.55034C36.9026 0.686701 39.0901 0.254883 41.5333 0.254883C44.0105 0.254883 46.181 0.686701 48.0446 1.55034C49.9196 2.40261 51.3912 3.59011 52.4594 5.11284C53.5276 6.6242 54.0787 8.36284 54.1128 10.3287H48.0276Z" fill="white"/>
</svg>
