<svg width="108" height="73" viewBox="0 0 108 73" fill="none" xmlns="http://www.w3.org/2000/svg">
<path d="M73.7892 7.76554C73.278 7.76554 72.9312 7.82778 72.5712 7.91224V7.97004H72.6334C72.8735 8.43237 73.2824 8.77024 73.5847 9.18367C73.8248 9.65935 74.0293 10.135 74.2694 10.6063L74.3316 10.5396C74.7495 10.2462 74.954 9.77493 74.954 9.0592C74.7762 8.85026 74.7495 8.64132 74.5983 8.43682C74.4205 8.13897 74.0382 7.99226 73.7981 7.75665L73.7892 7.76554ZM26.5107 66.4203H22.3896C22.2737 59.871 21.8733 53.3299 21.1893 46.8154H21.1538L14.8855 66.4203H11.7514L5.52761 46.8154H5.48316C4.99634 53.3401 4.70725 59.8781 4.61627 66.4203H0.859772C1.10428 57.6803 1.71332 49.4827 2.68245 41.8363H7.79485L13.7297 59.9031H13.7652L19.7534 41.8363H24.6213C25.6971 50.7941 26.3284 58.9962 26.524 66.4203H26.5107ZM44.3685 48.2824C42.6881 57.3736 40.4742 63.9886 37.7357 68.1096C35.593 71.2926 33.2457 72.8797 30.6984 72.8797C30.0182 72.8797 29.1869 72.6752 28.1822 72.2662V70.0701C28.6712 70.1457 29.2491 70.1857 29.8982 70.1857C31.0896 70.1857 32.0454 69.8523 32.7745 69.1988C33.6502 68.3986 34.0859 67.5006 34.0859 66.5092C34.0859 65.8201 33.7436 64.4198 33.0634 62.3126L28.5556 48.2824H32.6011L35.833 58.7739C36.5621 61.1567 36.8688 62.8194 36.7444 63.7663C38.5226 59.0362 39.7584 53.866 40.4564 48.2824H44.3685ZM99.1601 66.4203H87.4682V41.8363H91.4026V63.3973H99.1601V66.4203ZM84.4008 67.0204L79.8841 64.7977C80.2842 64.4598 80.671 64.0953 81.0177 63.6863C82.9426 61.4368 83.8985 58.0938 83.8985 53.6704C83.8985 45.535 80.7065 41.4629 74.3183 41.4629C71.1886 41.4629 68.7435 42.4943 66.9831 44.5615C65.0715 46.8198 64.1112 50.1451 64.1112 54.5418C64.1112 58.8628 64.9559 62.037 66.663 64.0553C68.2189 65.8779 70.5618 66.7893 73.7003 66.7893C74.874 66.7893 75.9498 66.6426 76.9234 66.3536L82.8137 69.7856L84.4141 67.0204H84.4008ZM69.766 61.4991C68.7658 59.8987 68.2678 57.3202 68.2678 53.7816C68.2678 47.5889 70.1528 44.4903 73.9137 44.4903C75.8831 44.4903 77.3368 45.2327 78.257 46.7131C79.2528 48.3224 79.7507 50.8742 79.7507 54.3728C79.7507 60.6144 77.8658 63.7441 74.1049 63.7441C72.1266 63.7441 70.6818 63.0017 69.7571 61.5213L69.766 61.4991ZM62.3953 59.6097C62.3953 61.6991 61.6306 63.4151 60.1013 64.7488C58.5721 66.0824 56.5316 66.7493 53.9487 66.7493C51.5347 66.7493 49.2186 65.9846 46.9558 64.4598L48.0094 62.3437C49.9566 63.3217 51.7126 63.8019 53.2996 63.8019C54.7756 63.8019 55.9359 63.4773 56.7805 62.8238C57.2027 62.5056 57.5436 62.092 57.7753 61.6168C58.0071 61.1417 58.1232 60.6184 58.1142 60.0898C58.1142 58.6228 57.0917 57.378 55.2335 56.3333C53.5086 55.3864 50.0633 53.4126 50.0633 53.4126C48.1872 52.0478 47.2537 50.5852 47.2537 48.1801C47.2537 46.1796 47.9516 44.5792 49.3431 43.3567C50.7434 42.1208 52.5439 41.5118 54.7667 41.5118C57.0428 41.5118 59.1233 42.1164 60.9905 43.3345L60.0436 45.4506C58.5516 44.7952 56.9429 44.4474 55.3135 44.4281C54.0554 44.4281 53.0818 44.7304 52.4061 45.3439C52.0632 45.6279 51.7867 45.9838 51.5962 46.3862C51.4058 46.7887 51.3059 47.2281 51.3036 47.6734C51.3036 49.1315 52.3438 50.3852 54.2643 51.4521C56.0114 52.4079 59.5412 54.4306 59.5412 54.4306C61.4661 55.7865 62.4219 57.2313 62.4219 59.623L62.3953 59.6097ZM104.104 33.5943C101.725 33.532 99.8802 33.7721 98.3376 34.43C97.8931 34.6078 97.1818 34.6078 97.1196 35.1724C97.3641 35.4081 97.3996 35.7948 97.6086 36.1238C97.9642 36.7195 98.5777 37.5152 99.1467 37.9331C99.7691 38.4221 100.391 38.8934 101.045 39.3113C102.201 40.0225 103.512 40.4449 104.646 41.1606C105.291 41.5785 105.948 42.1075 106.602 42.5521C106.926 42.7743 107.135 43.1744 107.553 43.3167V43.2278C107.349 42.9611 107.287 42.5743 107.087 42.2764C106.789 41.9786 106.491 41.7119 106.197 41.4184C105.325 40.2682 104.283 39.2566 103.108 38.4177C102.156 37.7686 100.076 36.8617 99.6846 35.7726L99.6268 35.7103C100.276 35.6526 101.049 35.4169 101.672 35.2391C102.681 34.9724 103.606 35.0302 104.65 34.7679C105.122 34.6479 105.597 34.5012 106.073 34.35V34.0833C105.539 33.5498 105.139 32.8252 104.588 32.3273C103.049 30.9823 101.409 29.7591 99.6802 28.6686C98.7466 28.0729 97.5641 27.6906 96.5816 27.1838C96.226 27.0059 95.6303 26.917 95.4258 26.6192C94.8923 25.9701 94.5811 25.1077 94.2033 24.3342C93.3303 22.6408 92.5192 20.9162 91.7715 19.164C91.2381 17.9992 90.9136 16.8389 90.2601 15.772C87.1926 10.7174 83.8718 7.6544 78.7638 4.65809C77.6658 4.03571 76.3499 3.76898 74.9584 3.44001C74.216 3.40444 73.4736 3.3511 72.7356 3.31998C72.2466 3.11104 71.7754 2.54645 71.3575 2.27527C69.6682 1.20833 65.2938 -1.10336 64.049 1.95519C63.2488 3.88456 65.236 5.78726 65.925 6.76529C66.4363 7.44546 67.0809 8.22343 67.4365 8.98807C67.6455 9.50375 67.7033 10.0328 67.9122 10.5707C68.3834 11.8777 68.8324 13.3358 69.4548 14.5584C69.7793 15.1807 70.135 15.8342 70.5529 16.3944C70.7929 16.7189 71.2019 16.8701 71.2953 17.4035C70.8774 18.0081 70.8507 18.8883 70.6107 19.6263C69.5437 22.9916 69.9616 27.1526 71.4731 29.6288C71.9488 30.3668 73.0824 32.0028 74.5983 31.3759C75.932 30.8425 75.6386 29.1531 76.0209 27.6639C76.1098 27.3082 76.052 27.0726 76.2343 26.8326V26.8992C76.6522 27.735 77.0701 28.5308 77.4524 29.3665C78.3682 30.8247 79.9686 32.3362 81.3067 33.3453C82.018 33.8788 82.5826 34.8035 83.4717 35.1324V35.0435H83.405C83.2138 34.7857 82.9604 34.6612 82.7204 34.4523C82.1567 33.9005 81.6365 33.306 81.1644 32.674C79.9119 30.9626 78.8012 29.1516 77.8436 27.2593C77.3546 26.3258 76.9456 25.3211 76.5544 24.4008C76.3766 24.0452 76.3766 23.5117 76.0787 23.3339C75.6341 23.983 74.9807 24.5475 74.6561 25.3477C74.0915 26.6281 74.0337 28.2018 73.8204 29.8378C73.7003 29.8689 73.7581 29.8378 73.7003 29.9C72.749 29.6688 72.4244 28.6819 72.0688 27.855C71.1797 25.7434 71.033 22.3514 71.8021 19.9197C72.011 19.2973 72.9001 17.3324 72.5445 16.7367C72.3578 16.1721 71.771 15.8476 71.4464 15.3897C71.029 14.7937 70.6716 14.1579 70.3795 13.4914C69.6682 11.8288 69.3126 9.98832 68.539 8.32568C68.1834 7.5566 67.561 6.75195 67.0542 6.04511C66.4896 5.2449 65.8672 4.68032 65.4182 3.73341C65.2715 3.40889 65.0626 2.87098 65.2982 2.51533C65.3605 2.27527 65.4849 2.18191 65.7161 2.11523C66.1073 1.79515 67.2054 2.21303 67.5921 2.39085C68.6902 2.83541 69.6149 3.25329 70.5351 3.87567C70.953 4.16908 71.402 4.73367 71.9354 4.88037H72.5578C73.5092 5.08931 74.5806 4.94261 75.4697 5.2049C77.0478 5.71169 78.4704 6.44965 79.7463 7.24986C83.6777 9.76122 86.8753 13.2672 89.0153 17.4124C89.3709 18.097 89.5265 18.7239 89.8511 19.4351C90.4734 20.9022 91.2425 22.3825 91.8738 23.8007C92.4962 25.201 93.0963 26.6281 93.9899 27.7884C94.4344 28.4107 96.2215 28.7353 97.0218 29.0598C97.613 29.3265 98.5332 29.571 99.0667 29.8956C100.089 30.5179 101.085 31.2292 102.045 31.9138C102.534 32.2517 104.015 32.9941 104.104 33.5943Z" fill="#EFEFEF"/>
</svg>
