<svg width="60" height="37" viewBox="0 0 60 37" fill="none" xmlns="http://www.w3.org/2000/svg">
<path d="M0.553284 6.03329V0.732156H28.4056V6.03329H17.6158V35.6412H11.3431V6.03329H0.553284Z" fill="white"/>
<path d="M52.7465 10.3287C52.5874 8.84011 51.9169 7.68102 50.7351 6.85147C49.5646 6.02193 48.0419 5.60716 46.1669 5.60716C44.8487 5.60716 43.7181 5.80602 42.7749 6.20375C41.8317 6.60147 41.1101 7.14125 40.6101 7.82306C40.1101 8.50488 39.8544 9.28329 39.8431 10.1583C39.8431 10.8856 40.0078 11.5162 40.3374 12.0503C40.6783 12.5844 41.1385 13.039 41.7181 13.414C42.2976 13.7776 42.9396 14.0844 43.6442 14.3344C44.3487 14.5844 45.059 14.7947 45.7749 14.9651L49.0476 15.7833C50.3658 16.0901 51.6328 16.5049 52.8487 17.0276C54.076 17.5503 55.1726 18.2094 56.1385 19.0049C57.1158 19.8003 57.8885 20.7606 58.4567 21.8856C59.0249 23.0106 59.309 24.3287 59.309 25.8401C59.309 27.8856 58.7862 29.6867 57.7408 31.2435C56.6953 32.789 55.184 33.9992 53.2067 34.8742C51.2408 35.7378 48.8601 36.1697 46.0646 36.1697C43.3487 36.1697 40.9908 35.7492 38.9908 34.9083C37.0021 34.0674 35.4453 32.8401 34.3203 31.2265C33.2067 29.6128 32.6044 27.6469 32.5135 25.3287H38.7351C38.826 26.5447 39.201 27.556 39.8601 28.3628C40.5192 29.1697 41.3771 29.7719 42.434 30.1697C43.5021 30.5674 44.6953 30.7662 46.0135 30.7662C47.3885 30.7662 48.5931 30.5617 49.6271 30.1526C50.6726 29.7322 51.4908 29.1526 52.0817 28.414C52.6726 27.664 52.9737 26.789 52.9851 25.789C52.9737 24.8799 52.7067 24.1299 52.184 23.539C51.6612 22.9367 50.9283 22.4367 49.9851 22.039C49.0533 21.6299 47.9624 21.2662 46.7124 20.9481L42.7408 19.9253C39.8658 19.1867 37.5931 18.0674 35.9226 16.5674C34.2635 15.056 33.434 13.0503 33.434 10.5503C33.434 8.49352 33.9908 6.69238 35.1044 5.14693C36.2294 3.60147 37.7578 2.40261 39.6896 1.55034C41.6215 0.686701 43.809 0.254883 46.2521 0.254883C48.7294 0.254883 50.8999 0.686701 52.7635 1.55034C54.6385 2.40261 56.1101 3.59011 57.1783 5.11284C58.2465 6.6242 58.7976 8.36284 58.8317 10.3287H52.7465Z" fill="white"/>
</svg>
